<?xml version="1.0" encoding="utf-8"?>
<!-- Generator: Adobe Illustrator 27.5.0, SVG Export Plug-In . SVG Version: 6.00 Build 0)  -->
<svg version="1.1" id="Layer_1" xmlns="http://www.w3.org/2000/svg" xmlns:xlink="http://www.w3.org/1999/xlink" x="0px" y="0px"
	 viewBox="0 0 1024 1024" style="color: #334155;" xml:space="preserve" fill="currentColor">
<g id="artwork_1_">
	<path d="M82.315,192.989c11.82-8.35,27.462-5.833,41.07-5.305c67.404,8.104,129.892,37.213,189.897,67.417
		c59.958,16.465,112.473,53.69,155.119,98.089c-22.746-18.5-46.962-35.284-72.121-50.315c30.768,22.734,60.524,46.892,89.658,71.696
		c21.193-7.609,43.222-16.289,58.853-33.179c11.784-11.995,18.771-27.885,31.144-39.329c19.077-16.595,46.187-20.687,70.614-17.947
		c27.78,3.904,50.079,22.298,71.086,39.435c6.174,6.233,15.571,3.763,23.416,4.728c79.624,1.846,159.412,6.363,238.083,19.206
		c-64.346-2.246-128.856-3.858-193.19,0.153c-35.389,1.729-76.53,5.928-98.547,37.695c-13.644,21.676-31.32,41.223-55.384,51.397
		c-6.588,3.562-15.937,6.033-17.301,14.63c-14.727,53.902-57.314,97.654-108.698,118.259
		c-33.943,14.067-70.638,19.301-106.71,24.898c-17.772,26.617-42.305,47.552-65.898,68.804c6.175-9.726,12.197-19.559,17.419-29.837
		c-31.156,29.015-63.441,56.854-95.125,85.222c38.708-39.059,74.214-81.106,111.827-121.177c1.434,5.563,1.375,11.326,1.199,17.03
		c19.816-20.147,37.342-42.729,50.761-67.639c-3.916,13.231-7.797,26.745-14.854,38.694c42.211-10.022,84.881-22.405,121.388-46.634
		c34.531-22.382,63.24-55.701,74.779-95.677c1.352-5.938-8.81-14.185-0.377-17.995c19.312-6.704,39.576-12.432,55.948-25.299
		c15.454-11.526,25.463-28.686,40.929-40.188c20.395-16.23,47.362-20.323,72.661-21.428c-21.63-2.646-43.493,4.058-64.922,0.105
		c-17.947-3.893-27.687-27.932-47.716-23.393c-19.018,5.963-9.55,44.552-34.884,39.059c-4.833,7.138-3.951,15.995-1.987,23.934
		c-4.963-3.199-8.032-8.702-13.467-11.208c-8.092,4.387-6.386,14.937-5.845,22.594c-6.435-1.636-10.574-7.222-12.996-13.044
		c-6.752,7.504-15.113,13.902-18.973,23.558c-0.588-5.609,1.354-14.266-4.998-17.16c-9.362,0.201-14.514,9.598-19.854,16.008
		c-0.188-8.163,4.447-22.982-6.95-25.194c-12.797,1.024-23.299,9.857-35.565,13.115c8.244,7.468,17.03,14.325,24.934,22.169
		c-65.639-41.21-126.363-89.773-192.556-130.126c-63.463-36.153-131.15-68.991-204.305-78.612
		C256.993,229.638,371.9,303.063,458.11,400.293c-14.291-9.22-30.38-20.558-48.351-17.065c13.302,1.847,24.923,9.079,34.99,17.595
		c-2.117,1.317-4.351,2.41-6.598,3.481c14.702,4.117,26.357,15.313,33.626,28.439c-9.903,29.403-42.411,45.27-71.803,46.387
		c-8.633-0.105-18.407-0.646-25.064-6.834c14.842-7.739,31.896-12.901,42.67-26.649c-13.925,11.043-30.474,19.251-48.268,21.263
		c-23.087,22.136-41.247,49.738-51.973,79.977c4.198-4.975,7.715-10.514,12.467-15.007c-3.104,9.139-8.386,17.267-13.808,25.158
		c9.056-5.469,16.055-13.691,21.805-22.44c-2.117,15.276-1.728,32.05-11.961,44.773c5.41-4.574,9.327-10.525,12.902-16.547
		c3.835,13.843-0.753,28.133-5.292,41.223c-13.313,35.319-37.307,65.192-62.193,93.056
		c-37.601,42.128-87.068,70.509-130.668,105.604c24.863-36.849,54.89-69.815,85.622-101.782
		c-52.914,48.433-110.567,91.385-166.54,136.16c49.444-67.31,109.839-125.199,169.562-183.17
		c18.642-19.229,40.212-35.801,56.113-57.607c-32.308,33.297-71.873,58.912-102.711,93.655c14.749-14.29,31.108-26.793,47.68-38.859
		c-58.466,58.49-123.059,110.286-185.452,164.435c55.055-89.445,127.198-167.459,207.01-235.308
		c8.798-7.41,17.795-14.608,27.298-21.054c14.489-37.766,43.398-67.675,73.354-93.866c-7.021-0.46-14.913-0.812-20.288-5.975
		c16.866-5.893,34.084-11.245,49.95-19.688c-23.828,7.75-50.409,18.936-74.979,7.256c-3.88-2.081-9.303-3.94-9.974-8.927
		c23.536-6.033,47.904-9.126,71.145-16.619c-31.779,3.787-67.863,16.913-96.878-3.306c-4.198-2.211-14.29-11.279-4.492-12.384
		c32.625-2.729,65.674-3.552,97.83-9.997c-32.426,0.694-65.299,6.104-97.502,0.635c-13.619-3.988-31.202-9.797-36.001-24.463
		c6.869-2.624,14.384-1.858,21.582-1.824c39.118,1.729,78.342,2.246,117.448-0.165c-34.825-1.94-69.58-5.068-104.452-6.186
		c-23.087-0.74-47.057-6.692-64.792-22.229c-4.352-4.081-9.632-8.751-9.468-15.254c6.797-2.517,14.243-1.271,21.312-0.965
		c42.034,4.305,83.963,9.551,126.021,13.632c-40.6-8.528-81.553-15.655-122.551-22.123c-26.099-4.528-54.268-16.749-67.239-41.117
		c-3.835-9.245,8.621-8.985,14.384-8.116c41.423,5.151,82.27,14.29,122.905,23.688c-36.201-13.573-73.661-23.381-111.285-32.12
		c-30.956-8.092-61.841-20.711-86.033-42.128C82.997,211.173,74.987,200.928,82.315,192.989 M163.844,241.305
		c51.538,14.078,101.664,33.143,151.203,53.007C268.06,268.79,216.793,249.443,163.844,241.305 M195.199,289.126
		c48.057,23.781,101.829,31.179,154.449,37.542C297.935,315.212,245.925,304.592,195.199,289.126 M237.763,343.744
		c41.153,12.563,84.658,14.09,127.351,12.538C322.55,353.413,280.057,349.249,237.763,343.744 M387.931,344.085
		c9.855,17.301,26.604,31.521,46.127,36.355C417.146,370.466,400.185,359.788,387.931,344.085 M274.036,380.676
		c36.624,12.596,76.236,9.138,113.778,3.199C349.906,385.321,311.682,386.073,274.036,380.676 M304.685,409.702
		c29.321,6.268,59.641,2.458,88.268-5.351C363.69,408.162,334.206,410.054,304.685,409.702 M326.162,438.741
		c24.816,2.281,49.691-4.764,71.283-16.726C374.383,430.107,350.589,436.659,326.162,438.741 M366.243,456.195
		c18.206-3.082,35.743-11.832,47.868-25.969C399.869,441.693,383.343,449.926,366.243,456.195 M407.149,464.181
		c10.326-2.035,20.429-8.398,24.146-18.677C425.108,453.818,416.569,460.017,407.149,464.181 M261.215,650.702
		c-36.742,30.579-76.789,58.818-105.134,97.877c35.331-41.188,83.716-67.803,121.905-105.863
		c13.843-14.713,27.311-31.425,31.615-51.607C300.991,616.076,280.668,634.025,261.215,650.702 M158.881,698.123
		c33.378-24.558,65.369-51.702,92.267-83.375C221.227,643.434,189.518,670.214,158.881,698.123z"/>
	<path d="M660.403,319.446c9.046-2.07,20.818,7.857,16.161,17.289c-4.188,9.526-19.877,9.821-24.205,0.259
		C648.479,330.302,652.382,320.41,660.403,319.446 M664.744,326.409c0.494,1.494,0.999,2.975,1.504,4.481
		c3.6,0.623,5.212-2.447,4.27-5.599c-0.869-0.258-2.599-0.775-3.468-1.034C666.473,324.797,665.32,325.868,664.744,326.409z"/>
</g>
</svg>
